<svg width="26" height="25" viewBox="0 0 26 25" fill="none" xmlns="http://www.w3.org/2000/svg">
<mask id="mask0_1240_1231" style="mask-type:luminance" maskUnits="userSpaceOnUse" x="0" y="0" width="26" height="25">
<path d="M16.9326 4.61936e-05L0.894531 8.17188L9.06636 24.21L25.1045 16.0382L16.9326 4.61936e-05Z" fill="white"/>
</mask>
<g mask="url(#mask0_1240_1231)">
<path d="M19.0898 19.1029C17.9664 19.6742 16.7356 20.0037 15.477 20.07C14.2184 20.1363 12.9598 19.9379 11.7826 19.4877C10.5992 19.0395 9.52458 18.3447 8.63017 17.4495C7.73576 16.5542 7.04195 15.4791 6.59477 14.2952C5.90577 12.4494 5.83506 10.4296 6.39329 8.54007C6.95153 6.65053 8.10849 4.99347 9.68999 3.81838C10.7209 3.07542 11.8865 2.54014 13.1218 2.24235C13.4479 2.16952 13.7875 2.18514 14.1055 2.28761C14.4236 2.39007 14.7084 2.57566 14.9307 2.82516C15.1529 3.07466 15.3044 3.37902 15.3696 3.70673C15.4347 4.03444 15.4111 4.37361 15.3012 4.68913C13.6724 9.02573 16.1427 13.2198 20.7469 14.0439C21.0757 14.1086 21.3812 14.2602 21.6316 14.483C21.8819 14.7057 22.068 14.9915 22.1704 15.3106C22.2728 15.6297 22.2878 15.9704 22.2139 16.2972C22.14 16.6241 21.9798 16.9252 21.7501 17.1691C20.9713 17.9505 20.0733 18.6032 19.0898 19.1029ZM11.6497 4.37539C11.2741 4.56566 10.9139 4.78495 10.5723 5.03127C9.2554 6.00926 8.29181 7.38854 7.82658 8.96151C7.36135 10.5345 7.41965 12.216 7.99271 13.753C8.36517 14.7417 8.94379 15.6398 9.69012 16.3876C10.4365 17.1354 11.3334 17.7159 12.3214 18.0903C13.7516 18.6071 15.3011 18.6977 16.7818 18.3511C18.2625 18.0045 19.6109 17.2357 20.6632 16.1379C20.7078 16.0891 20.7388 16.0294 20.7529 15.9649C20.767 15.9003 20.7638 15.8331 20.7436 15.7702C20.7235 15.7072 20.687 15.6507 20.6379 15.6064C20.5889 15.5621 20.529 15.5316 20.4643 15.5179C14.9775 14.5442 11.9361 9.3532 13.8895 4.18028C13.9116 4.12016 13.9164 4.05509 13.9035 3.99238C13.8906 3.92967 13.8604 3.87181 13.8164 3.82529C13.7729 3.77429 13.7163 3.73614 13.6527 3.71498C13.5891 3.69383 13.521 3.69047 13.4556 3.70527C12.8288 3.85503 12.2225 4.08004 11.6497 4.37539Z" fill="#6D6E6F"/>
</g>
</svg>
