<svg width="11" height="12" viewBox="0 0 11 12" fill="none" xmlns="http://www.w3.org/2000/svg">
<g clip-path="url(#clip0_1240_1239)">
<path fill-rule="evenodd" clip-rule="evenodd" d="M9 1C9 0.447717 9.44772 8.53876e-09 10 8.53876e-09C10.5523 8.53876e-09 11 0.447717 11 1V11C11 11.5523 10.5523 12 10 12C9.44771 12 9 11.5523 9 11V1ZM1.68966 11.7241C1.28973 12.105 0.65675 12.0896 0.275864 11.6897C-0.105022 11.2897 -0.0895839 10.6567 0.310347 10.2759L4.58539 6.2044L0.276646 1.69048C-0.104693 1.29098 -0.089973 0.657985 0.309526 0.276646C0.709024 -0.104693 1.34202 -0.0899723 1.72336 0.309526L6.72336 5.54762C6.90662 5.73961 7.00604 5.99658 6.99972 6.26191C6.9934 6.52725 6.88185 6.77919 6.68966 6.96223L1.68966 11.7241Z" fill="#fff"/>
</g>
<defs>
<clipPath id="clip0_1240_1239">
<rect width="11" height="12" fill="white"/>
</clipPath>
</defs>
</svg>
