<svg width="146" height="24" viewBox="0 0 146 24" fill="none" xmlns="http://www.w3.org/2000/svg">
<g clip-path="url(#clip0_3342_1118)">
<path d="M139.601 6.27246C140.693 6.27246 141.681 6.54028 142.565 7.07592C143.449 7.61155 144.142 8.3459 144.645 9.27894C145.147 10.1947 145.399 11.2228 145.399 12.3632C145.399 12.6915 145.39 12.942 145.373 13.1148H135.363C135.432 14.3589 135.839 15.4215 136.585 16.3027C137.33 17.1839 138.344 17.6245 139.627 17.6245C140.667 17.6245 141.525 17.4344 142.201 17.0543C142.894 16.6569 143.449 16.1126 143.865 15.4215L145.269 16.3545C144.697 17.253 143.943 17.9614 143.007 18.4798C142.071 18.9809 140.961 19.2314 139.679 19.2314C138.5 19.2314 137.451 18.955 136.533 18.4021C135.614 17.8491 134.895 17.0802 134.375 16.0954C133.855 15.1105 133.595 13.996 133.595 12.7519C133.595 11.5079 133.846 10.3934 134.349 9.40853C134.869 8.42365 135.579 7.65475 136.481 7.10183C137.399 6.54892 138.439 6.27246 139.601 6.27246ZM143.631 11.6634C143.457 10.4021 143.033 9.46037 142.357 8.83834C141.681 8.19903 140.762 7.87937 139.601 7.87937C138.474 7.87937 137.547 8.24222 136.819 8.96792C136.108 9.67635 135.657 10.5748 135.467 11.6634H143.631Z" fill="white"/>
<path d="M127.235 19.2314C126.056 19.2314 125.008 18.955 124.089 18.4021C123.17 17.8491 122.451 17.0802 121.931 16.0954C121.411 15.1105 121.151 13.996 121.151 12.7519C121.151 11.5079 121.402 10.3934 121.905 9.40853C122.425 8.42365 123.144 7.65475 124.063 7.10183C124.982 6.54892 126.022 6.27246 127.183 6.27246C128.171 6.27246 129.029 6.48844 129.757 6.92041C130.502 7.3351 131.178 7.93121 131.785 8.70875L130.485 9.71955C129.636 8.49276 128.535 7.87937 127.183 7.87937C126.368 7.87937 125.632 8.08672 124.973 8.5014C124.332 8.91609 123.829 9.49492 123.465 10.2379C123.101 10.9809 122.919 11.8189 122.919 12.7519C122.919 13.685 123.101 14.523 123.465 15.266C123.829 16.009 124.332 16.5878 124.973 17.0025C125.632 17.4172 126.368 17.6245 127.183 17.6245C128.015 17.6245 128.7 17.4863 129.237 17.2098C129.774 16.9161 130.26 16.4928 130.693 15.9398L132.071 16.8988C131.499 17.6072 130.788 18.1774 129.939 18.6094C129.107 19.0241 128.206 19.2314 127.235 19.2314Z" fill="white"/>
<path d="M118.694 6.68715V18.8167H116.926V17.0284C116.423 17.7195 115.808 18.2638 115.08 18.6612C114.352 19.0414 113.554 19.2314 112.688 19.2314C111.526 19.2314 110.486 18.955 109.568 18.4021C108.649 17.8491 107.93 17.0802 107.41 16.0954C106.89 15.1105 106.63 13.9874 106.63 12.726C106.63 11.482 106.881 10.3761 107.384 9.40853C107.904 8.42365 108.614 7.65475 109.516 7.10183C110.434 6.54892 111.474 6.27246 112.636 6.27246C113.52 6.27246 114.326 6.47117 115.054 6.86857C115.799 7.2487 116.423 7.79298 116.926 8.5014V6.68715H118.694ZM112.636 17.6245C113.468 17.6245 114.204 17.4172 114.846 17.0025C115.504 16.5878 116.016 16.009 116.38 15.266C116.744 14.523 116.926 13.685 116.926 12.7519C116.926 11.8189 116.744 10.9809 116.38 10.2379C116.016 9.49492 115.504 8.91609 114.846 8.5014C114.204 8.08672 113.468 7.87937 112.636 7.87937C111.821 7.87937 111.093 8.08672 110.452 8.5014C109.81 8.91609 109.308 9.49492 108.944 10.2379C108.58 10.9636 108.398 11.793 108.398 12.726C108.398 13.6763 108.58 14.523 108.944 15.266C109.308 16.009 109.81 16.5878 110.452 17.0025C111.093 17.4172 111.821 17.6245 112.636 17.6245Z" fill="white"/>
<path d="M98.8415 6.27246C100.002 6.27246 101.042 6.54892 101.961 7.10183C102.879 7.65475 103.599 8.42365 104.119 9.40853C104.639 10.3934 104.899 11.5165 104.899 12.7779C104.899 14.0219 104.639 15.1364 104.119 16.1213C103.616 17.0889 102.905 17.8491 101.987 18.4021C101.085 18.955 100.054 19.2314 98.8935 19.2314C98.0095 19.2314 97.1944 19.0414 96.449 18.6612C95.721 18.2638 95.1057 17.7109 94.603 17.0025V24.0003H92.835V6.68715H94.603V8.47548C95.1057 7.78434 95.721 7.2487 96.449 6.86857C97.177 6.47117 97.9745 6.27246 98.8415 6.27246ZM98.8935 17.6245C99.7075 17.6245 100.435 17.4172 101.077 17.0025C101.718 16.5878 102.221 16.0176 102.585 15.2919C102.949 14.5489 103.131 13.7109 103.131 12.7779C103.131 11.8275 102.949 10.9809 102.585 10.2379C102.221 9.49492 101.718 8.91609 101.077 8.5014C100.435 8.08672 99.7075 7.87937 98.8935 7.87937C98.0615 7.87937 97.3157 8.08672 96.657 8.5014C96.0157 8.91609 95.513 9.49492 95.149 10.2379C94.785 10.9809 94.603 11.8189 94.603 12.7519C94.603 13.685 94.785 14.523 95.149 15.266C95.513 16.009 96.0157 16.5878 96.657 17.0025C97.3157 17.4172 98.0615 17.6245 98.8935 17.6245Z" fill="white"/>
<path d="M85.0386 19.2314C83.8599 19.2314 82.8199 18.9809 81.9186 18.4798C81.0346 17.9787 80.3586 17.2703 79.8906 16.3545L81.4766 15.577C82.1179 16.942 83.3746 17.6245 85.2466 17.6245C86.1479 17.6245 86.8932 17.4604 87.4826 17.1321C88.0719 16.8038 88.3666 16.2941 88.3666 15.6029C88.3666 14.8945 88.1239 14.3675 87.6386 14.0219C87.1706 13.6763 86.3386 13.4517 85.1426 13.3481C83.4786 13.2098 82.2826 12.8383 81.5546 12.2336C80.8439 11.6288 80.4886 10.8254 80.4886 9.82322C80.4886 8.70011 80.8959 7.82754 81.7106 7.20551C82.5252 6.58348 83.6432 6.27246 85.0646 6.27246C87.4739 6.27246 89.1119 7.22279 89.9786 9.12343L88.3926 9.90097C88.0979 9.20983 87.6646 8.70011 87.0926 8.37181C86.5379 8.04352 85.8186 7.87937 84.9346 7.87937C84.0332 7.87937 83.3399 8.04352 82.8546 8.37181C82.3866 8.70011 82.1526 9.16663 82.1526 9.77138C82.1526 10.3416 82.4039 10.8081 82.9066 11.1709C83.4266 11.5165 84.3106 11.7411 85.5586 11.8448C87.1012 11.983 88.2452 12.3632 88.9906 12.9852C89.7532 13.59 90.1346 14.3934 90.1346 15.3956C90.1346 16.2077 89.9006 16.9075 89.4326 17.4949C88.9646 18.0651 88.3406 18.4971 87.5606 18.7908C86.7806 19.0846 85.9399 19.2314 85.0386 19.2314Z" fill="white"/>
<path d="M76.9378 18.8164L72.6738 12.5702L71.1918 13.9957V18.8164H69.4238V0H71.1918V11.7667L76.5218 6.68682H78.8098L73.8958 11.4039L78.9138 18.8164H76.9378Z" fill="white"/>
<path d="M66.5933 6.27246C67.0093 6.27246 67.408 6.33294 67.7893 6.45389V8.0608C67.4253 7.88801 67.0266 7.80162 66.5933 7.80162C65.848 7.80162 65.1546 8.00896 64.5133 8.42365C63.872 8.83834 63.352 9.44309 62.9533 10.2379C62.572 11.0154 62.3813 11.9398 62.3813 13.0111V18.8167H60.6133V6.68715H62.3813V9.12343C62.8493 8.22495 63.4386 7.52516 64.1493 7.02408C64.8773 6.523 65.692 6.27246 66.5933 6.27246Z" fill="white"/>
<path d="M52.1049 19.2314C50.9436 19.2314 49.9036 18.955 48.9849 18.4021C48.0662 17.8491 47.3469 17.0802 46.8269 16.0954C46.3069 15.0932 46.0469 13.9701 46.0469 12.726C46.0469 11.482 46.2982 10.3761 46.8009 9.40853C47.3209 8.42365 48.0316 7.65475 48.9329 7.10183C49.8516 6.54892 50.8916 6.27246 52.0529 6.27246C53.2142 6.27246 54.2542 6.54892 55.1729 7.10183C56.0916 7.65475 56.8109 8.42365 57.3309 9.40853C57.8509 10.3934 58.1109 11.5079 58.1109 12.7519C58.1109 13.996 57.8509 15.1105 57.3309 16.0954C56.8282 17.0802 56.1176 17.8491 55.1989 18.4021C54.2976 18.955 53.2662 19.2314 52.1049 19.2314ZM52.0529 17.6245C52.8849 17.6245 53.6216 17.4172 54.2629 17.0025C54.9216 16.5878 55.4329 16.009 55.7969 15.266C56.1609 14.523 56.3429 13.685 56.3429 12.7519C56.3429 11.8189 56.1609 10.9809 55.7969 10.2379C55.4329 9.49492 54.9216 8.91609 54.2629 8.5014C53.6216 8.08672 52.8849 7.87937 52.0529 7.87937C51.2382 7.87937 50.5102 8.08672 49.8689 8.5014C49.2276 8.91609 48.7249 9.49492 48.3609 10.2379C47.9969 10.9636 47.8149 11.793 47.8149 12.726C47.8149 13.6763 47.9969 14.523 48.3609 15.266C48.7249 16.009 49.2276 16.5878 49.8689 17.0025C50.5102 17.4172 51.2382 17.6245 52.0529 17.6245Z" fill="white"/>
<path d="M43.4414 6.68652H45.1314L41.1794 18.8161H39.3334L36.3694 9.51158L33.1714 18.8161H31.4034L27.3994 6.68652H29.2714L32.3914 16.328L35.5634 6.68652H37.2794L40.3474 16.2762L43.4414 6.68652Z" fill="white"/>
<path d="M12.9066 3.28562C14.2403 3.95244 14.7808 5.57416 14.1141 6.90782L7.81443 19.507C7.1476 20.8406 5.52589 21.3812 4.19224 20.7144C2.85858 20.0476 2.31801 18.4259 2.98484 17.0922L9.28443 4.49302C9.95129 3.15936 11.573 2.61879 12.9066 3.28562Z" fill="#1B66E7"/>
<path d="M5.39965 5.7008C5.39965 7.19187 4.19089 8.40063 2.69983 8.40063C1.20876 8.40063 0 7.19187 0 5.7008C0 4.20973 1.20876 3.00098 2.69983 3.00098C4.19089 3.00098 5.39965 4.20973 5.39965 5.7008Z" fill="#1B66E7"/>
<path d="M23.114 6.90782C23.7808 5.57416 23.2403 3.95244 21.9066 3.28562C20.573 2.61879 18.9513 3.15936 18.2844 4.49302L11.9848 17.0922C11.318 18.4259 11.8585 20.0476 13.1923 20.7144C14.5259 21.3812 16.1476 20.8406 16.8144 19.507L23.114 6.90782Z" fill="#1B66E7"/>
</g>
<defs>
<clipPath id="clip0_3342_1118">
<rect width="146" height="24" fill="white"/>
</clipPath>
</defs>
</svg>
