<svg width="158" height="44" viewBox="0 0 158 44" fill="none" xmlns="http://www.w3.org/2000/svg">
<path fill-rule="evenodd" clip-rule="evenodd" d="M41.6938 6.74728C42.9813 6.74728 44.0381 5.69753 44.0381 4.38654C44.0381 3.07556 42.9813 2.02581 41.6938 2.02581C40.4063 2.02581 39.3495 3.07556 39.3495 4.38654C39.3495 5.69753 40.4063 6.74728 41.6938 6.74728ZM41.6938 8.77309C44.1073 8.77309 46.0639 6.80917 46.0639 4.38654C46.0639 1.96392 44.1073 0 41.6938 0C39.2803 0 37.3237 1.96392 37.3237 4.38654C37.3237 6.80917 39.2803 8.77309 41.6938 8.77309ZM48.0105 18.4495C50.1025 18.4495 51.8115 16.7451 51.8115 14.6266C51.8115 12.508 50.1025 10.8036 48.0105 10.8036C45.9185 10.8036 44.2095 12.508 44.2095 14.6266C44.2095 16.7451 45.9185 18.4495 48.0105 18.4495ZM48.0105 20.4753C51.2285 20.4753 53.8373 17.8567 53.8373 14.6266C53.8373 11.3964 51.2285 8.77783 48.0105 8.77783C44.7925 8.77783 42.1837 11.3964 42.1837 14.6266C42.1837 17.8567 44.7925 20.4753 48.0105 20.4753ZM44.6341 28.2696C44.6341 31.8005 41.7859 34.6411 38.2991 34.6411C34.8124 34.6411 31.9642 31.8005 31.9642 28.2696C31.9642 24.7387 34.8124 21.8981 38.2991 21.8981C41.7859 21.8981 44.6341 24.7387 44.6341 28.2696ZM48.0104 28.2696C48.0104 33.6532 43.6626 38.0175 38.2991 38.0175C32.9357 38.0175 28.5878 33.6532 28.5878 28.2696C28.5878 22.886 32.9357 18.5217 38.2991 18.5217C43.6626 18.5217 48.0104 22.886 48.0104 28.2696ZM6.06266 38.0189L0 16.7508H4.89358L8.40083 31.5284H8.5767L12.4461 16.7508H16.6361L20.4951 31.5596H20.6813L24.1886 16.7508H29.0822L23.0195 38.0189H18.6536L14.6187 24.1136H14.4531L10.4286 38.0189H6.06266ZM147.459 37.333C148.569 38.0115 149.89 38.3507 151.421 38.3507C152.497 38.3507 153.466 38.1845 154.328 37.8522C155.191 37.513 155.915 37.0422 156.501 36.4399C157.087 35.8307 157.505 35.1245 157.753 34.3214L155.394 33.6568C155.187 34.2106 154.894 34.6745 154.515 35.0483C154.135 35.4153 153.684 35.6922 153.159 35.8791C152.642 36.0591 152.063 36.1491 151.421 36.1491C150.435 36.1491 149.569 35.9345 148.824 35.5053C148.08 35.0691 147.497 34.4356 147.076 33.6048C146.701 32.8453 146.496 31.9349 146.461 30.8736H158.001V29.8352C158.001 28.3467 157.805 27.0936 157.412 26.0759C157.018 25.0581 156.491 24.2412 155.829 23.625C155.167 23.0019 154.432 22.5519 153.625 22.275C152.818 21.9981 152.001 21.8596 151.173 21.8596C149.738 21.8596 148.483 22.2127 147.407 22.9189C146.338 23.6181 145.503 24.5943 144.903 25.8474C144.31 27.0936 144.014 28.5336 144.014 30.1675C144.014 31.8013 144.31 33.2345 144.903 34.4668C145.503 35.6922 146.355 36.6476 147.459 37.333ZM146.467 28.7551C146.513 28.0152 146.699 27.316 147.024 26.6574C147.404 25.8889 147.945 25.2658 148.649 24.7881C149.359 24.3035 150.2 24.0612 151.173 24.0612C152.056 24.0612 152.821 24.2654 153.47 24.6739C154.125 25.0824 154.629 25.6397 154.98 26.3459C155.339 27.052 155.518 27.8551 155.518 28.7551H146.467ZM134.939 38.3507C133.449 38.3507 132.166 37.9976 131.09 37.2915C130.014 36.5853 129.187 35.6126 128.607 34.3733C128.028 33.1341 127.738 31.7183 127.738 30.1259C127.738 28.5059 128.035 27.0763 128.628 25.837C129.228 24.5908 130.063 23.6181 131.132 22.9189C132.208 22.2127 133.463 21.8596 134.898 21.8596C136.015 21.8596 137.022 22.0673 137.919 22.4827C138.815 22.8981 139.55 23.4796 140.122 24.2274C140.695 24.9751 141.05 25.8474 141.188 26.8443H138.746C138.56 26.1174 138.146 25.4735 137.505 24.9128C136.87 24.3451 136.015 24.0612 134.939 24.0612C133.987 24.0612 133.153 24.3104 132.435 24.8089C131.725 25.3005 131.17 25.9962 130.77 26.8963C130.376 27.7893 130.18 28.8382 130.18 30.0429C130.18 31.2752 130.373 32.3483 130.759 33.2621C131.152 34.176 131.704 34.8856 132.415 35.391C133.132 35.8964 133.973 36.1491 134.939 36.1491C135.574 36.1491 136.149 36.0383 136.667 35.8168C137.184 35.5953 137.622 35.2768 137.981 34.8614C138.339 34.446 138.595 33.9475 138.746 33.366H141.188C141.05 34.3075 140.709 35.1556 140.164 35.9103C139.626 36.658 138.912 37.2534 138.022 37.6965C137.139 38.1326 136.112 38.3507 134.939 38.3507ZM115 37.8211C115.821 38.2019 116.735 38.3922 117.742 38.3922C118.666 38.3922 119.449 38.2538 120.09 37.9768C120.732 37.6999 121.246 37.3641 121.632 36.9695C122.018 36.5749 122.294 36.2045 122.46 35.8583H122.584V38.0184H125.025V27.509C125.025 26.242 124.818 25.2312 124.405 24.4766C123.991 23.722 123.47 23.1577 122.842 22.7839C122.222 22.41 121.577 22.1642 120.908 22.0465C120.246 21.9219 119.659 21.8596 119.149 21.8596C118.349 21.8596 117.535 21.9704 116.707 22.1919C115.887 22.4066 115.128 22.7873 114.431 23.3343C113.742 23.8743 113.19 24.6289 112.776 25.5982L115.093 26.4289C115.362 25.8474 115.828 25.3005 116.49 24.7881C117.152 24.2758 118.066 24.0197 119.232 24.0197C120.356 24.0197 121.194 24.3035 121.746 24.8712C122.304 25.4389 122.584 26.2351 122.584 27.2597V27.3428C122.584 27.7374 122.442 28.0144 122.16 28.1736C121.884 28.3328 121.442 28.4471 120.835 28.5163C120.235 28.5786 119.452 28.6721 118.487 28.7967C117.749 28.8936 117.014 29.0251 116.283 29.1913C115.559 29.3505 114.897 29.5928 114.297 29.9182C113.697 30.2436 113.217 30.6936 112.859 31.2683C112.5 31.836 112.321 32.5767 112.321 33.4906C112.321 34.5291 112.562 35.4153 113.045 36.1491C113.528 36.8761 114.18 37.4334 115 37.8211ZM120.556 35.6195C119.894 36.0003 119.08 36.1907 118.114 36.1907C117.142 36.1907 116.338 35.976 115.704 35.5468C115.076 35.1106 114.762 34.4668 114.762 33.6152C114.762 32.9921 114.928 32.5006 115.259 32.1406C115.597 31.7737 116.038 31.5002 116.583 31.3202C117.135 31.1333 117.728 30.9983 118.363 30.9152C118.625 30.8806 118.966 30.839 119.387 30.7906C119.815 30.7352 120.253 30.6729 120.701 30.6036C121.156 30.5275 121.556 30.4409 121.901 30.344C122.253 30.2402 122.48 30.1259 122.584 30.0013V32.2444C122.584 32.9091 122.411 33.5425 122.066 34.1449C121.729 34.7472 121.225 35.2387 120.556 35.6195ZM95.3117 44V22.0673H97.6706V24.6012H97.9602C98.1396 24.3243 98.3879 23.9712 98.7051 23.542C99.0293 23.1058 99.4914 22.7181 100.091 22.3789C100.698 22.0327 101.519 21.8596 102.554 21.8596C103.892 21.8596 105.071 22.1954 106.092 22.8669C107.113 23.5385 107.909 24.4904 108.482 25.7228C109.054 26.9551 109.341 28.409 109.341 30.0844C109.341 31.7737 109.054 33.2379 108.482 34.4772C107.909 35.7095 107.116 36.6649 106.102 37.3434C105.089 38.0149 103.919 38.3507 102.595 38.3507C101.574 38.3507 100.757 38.1811 100.143 37.8418C99.5294 37.4957 99.0569 37.1045 98.7258 36.6684C98.3948 36.2253 98.1396 35.8583 97.9602 35.5676H97.7533V44H95.3117ZM97.7119 30.0429C97.7119 31.2475 97.8878 32.3102 98.2396 33.231C98.5913 34.1449 99.1052 34.8614 99.7811 35.3806C100.457 35.893 101.285 36.1491 102.264 36.1491C103.285 36.1491 104.137 35.8791 104.82 35.3391C105.509 34.7922 106.027 34.0583 106.371 33.1375C106.723 32.2098 106.899 31.1783 106.899 30.0429C106.899 28.9213 106.727 27.9105 106.382 27.0105C106.044 26.1035 105.53 25.387 104.84 24.8608C104.157 24.3277 103.299 24.0612 102.264 24.0612C101.271 24.0612 100.436 24.3139 99.7604 24.8193C99.0845 25.3178 98.5741 26.017 98.2292 26.917C97.8844 27.8101 97.7119 28.8521 97.7119 30.0429ZM89.1529 26.2628L91.3462 25.6397C90.9668 24.5043 90.3254 23.5904 89.4219 22.8981C88.5252 22.2058 87.2906 21.8596 85.718 21.8596C84.6007 21.8596 83.6006 22.0569 82.7178 22.4516C81.8418 22.8462 81.1486 23.3896 80.6382 24.082C80.1347 24.7743 79.883 25.5705 79.883 26.4705C79.883 27.5713 80.221 28.4886 80.8969 29.2225C81.5797 29.9494 82.6488 30.4859 84.1041 30.8321L86.7526 31.4552C87.5527 31.6421 88.1459 31.926 88.5321 32.3067C88.9184 32.6806 89.1115 33.1444 89.1115 33.6983C89.1115 34.3837 88.7735 34.9722 88.0976 35.4637C87.4286 35.9483 86.525 36.1907 85.387 36.1907C84.3869 36.1907 83.5765 35.976 82.9557 35.5468C82.3419 35.1176 81.9246 34.4737 81.7039 33.6152L79.3864 34.1968C79.6692 35.5537 80.3417 36.5853 81.4038 37.2915C82.466 37.9976 83.8075 38.3507 85.4284 38.3507C86.663 38.3507 87.7458 38.143 88.677 37.7276C89.6081 37.3122 90.3323 36.7445 90.8496 36.0245C91.3738 35.3045 91.6359 34.4875 91.6359 33.5737C91.6359 32.459 91.2876 31.5486 90.5909 30.8425C89.8943 30.1294 88.8356 29.5998 87.4148 29.2536L85.0559 28.6721C84.1179 28.4367 83.4282 28.1424 82.9867 27.7893C82.5453 27.4363 82.3246 26.9551 82.3246 26.3459C82.3246 25.6605 82.6453 25.0962 83.2868 24.6531C83.9351 24.2031 84.7455 23.9781 85.718 23.9781C86.4285 23.9781 87.0113 24.0924 87.4665 24.3208C87.9217 24.5493 88.2804 24.8401 88.5425 25.1931C88.8115 25.5393 89.0149 25.8958 89.1529 26.2628ZM67.062 38.0188V32.9544L68.2564 31.5855L72.5867 38.0188H77.7492L71.5554 28.9773L77.4492 22.0678H72.3901L67.2999 28.1221H67.062V16.7507H62.6547V38.0188H67.062ZM50.7419 22.0651V38.0162H55.1492V28.9918C55.1492 28.341 55.2941 27.7664 55.5838 27.2679C55.8804 26.7695 56.2804 26.3818 56.7839 26.1048C57.2943 25.821 57.8736 25.6791 58.522 25.6791C58.8255 25.6791 59.16 25.7033 59.5255 25.7517C59.8911 25.8002 60.1773 25.8556 60.3842 25.9179V21.9924C60.1911 21.944 59.967 21.9059 59.7118 21.8782C59.4566 21.8505 59.2186 21.8367 58.9979 21.8367C58.1082 21.8367 57.3219 22.0928 56.639 22.6051C55.9562 23.1105 55.47 23.8582 55.1803 24.8483H55.0148V22.0651H50.7419Z" fill="#0B2E58"/>
<path d="M46.3223 28.2696C46.3223 32.7268 42.7243 36.3293 38.2992 36.3293C33.8741 36.3293 30.2761 32.7268 30.2761 28.2696C30.2761 23.8124 33.8741 20.2099 38.2992 20.2099C42.7243 20.2099 46.3223 23.8124 46.3223 28.2696Z" stroke="#0364B8" stroke-width="3.37635"/>
<path d="M45.0515 4.38654C45.0515 6.25335 43.5448 7.76018 41.6943 7.76018C39.8438 7.76018 38.3371 6.25335 38.3371 4.38654C38.3371 2.51974 39.8438 1.01291 41.6943 1.01291C43.5448 1.01291 45.0515 2.51974 45.0515 4.38654Z" stroke="#9AC64A" stroke-width="2.02581"/>
<path d="M52.8242 14.6266C52.8242 17.3009 50.6654 19.4624 48.0104 19.4624C45.3553 19.4624 43.1965 17.3009 43.1965 14.6266C43.1965 11.9522 45.3553 9.79074 48.0104 9.79074C50.6654 9.79074 52.8242 11.9522 52.8242 14.6266Z" stroke="#59A3E1" stroke-width="2.02581"/>
</svg>
