<svg width="11" height="12" viewBox="0 0 11 12" fill="none" xmlns="http://www.w3.org/2000/svg">
<g clip-path="url(#clip0_1240_1243)">
<path fill-rule="evenodd" clip-rule="evenodd" d="M2 1C2 0.447717 1.55228 8.53876e-09 1 8.53876e-09C0.447715 8.53876e-09 0 0.447717 0 1V11C0 11.5523 0.447716 12 1 12C1.55229 12 2 11.5523 2 11V1ZM9.31034 11.7241C9.71027 12.105 10.3433 12.0896 10.7241 11.6897C11.105 11.2897 11.0896 10.6567 10.6897 10.2759L6.41461 6.2044L10.7234 1.69048C11.1047 1.29098 11.09 0.657985 10.6905 0.276646C10.291 -0.104693 9.65798 -0.0899723 9.27664 0.309526L4.27664 5.54762C4.09338 5.73961 3.99396 5.99658 4.00028 6.26191C4.0066 6.52725 4.11815 6.77919 4.31034 6.96223L9.31034 11.7241Z" fill="#fff"/>
</g>
<defs>
<clipPath id="clip0_1240_1243">
<rect width="11" height="12" fill="white"/>
</clipPath>
</defs>
</svg>
