<svg width="144" height="25" viewBox="0 0 144 25" fill="none" xmlns="http://www.w3.org/2000/svg">
<path fill-rule="evenodd" clip-rule="evenodd" d="M40.5747 10.6988C40.5747 13.9086 37.9855 16.4908 34.8158 16.4908C31.6462 16.4908 29.0571 13.9086 29.0571 10.6988C29.0571 7.48903 31.6462 4.90679 34.8158 4.90679C37.9855 4.90679 40.5747 7.48903 40.5747 10.6988ZM43.6439 10.6988C43.6439 15.5928 39.6915 19.5601 34.8158 19.5601C29.9402 19.5601 25.9878 15.5928 25.9878 10.6988C25.9878 5.80484 29.9402 1.83747 34.8158 1.83747C39.6915 1.83747 43.6439 5.80484 43.6439 10.6988ZM5.51127 19.5614L0 0.227629H4.44851L7.63678 13.6612H7.79665L11.3141 0.227629H15.1231L18.6311 13.6896H18.8003L21.9887 0.227629H26.4372L20.9259 19.5614H16.9571L13.2891 6.92079H13.1386L9.48013 19.5614H5.51127ZM134.048 18.9379C135.057 19.5547 136.258 19.863 137.649 19.863C138.628 19.863 139.508 19.7119 140.292 19.4099C141.076 19.1015 141.735 18.6735 142.267 18.126C142.8 17.5722 143.18 16.9303 143.405 16.2002L141.261 15.596C141.073 16.0995 140.806 16.5212 140.462 16.861C140.117 17.1946 139.707 17.4463 139.229 17.6162C138.759 17.7799 138.233 17.8617 137.649 17.8617C136.753 17.8617 135.966 17.6666 135.289 17.2764C134.612 16.8799 134.082 16.304 133.7 15.5488C133.359 14.8583 133.172 14.0307 133.14 13.066H143.631V12.122C143.631 10.7689 143.453 9.62976 143.095 8.70462C142.737 7.77938 142.258 7.03678 141.656 6.47663C141.055 5.9102 140.387 5.50112 139.653 5.24941C138.919 4.99769 138.177 4.87179 137.424 4.87179C136.119 4.87179 134.979 5.19277 134 5.83474C133.029 6.47035 132.27 7.35777 131.724 8.4969C131.185 9.62976 130.916 10.9388 130.916 12.4241C130.916 13.9093 131.185 15.2121 131.724 16.3324C132.27 17.4463 133.044 18.3148 134.048 18.9379ZM133.146 11.1401C133.188 10.4675 133.357 9.83193 133.652 9.23323C133.998 8.53463 134.489 7.96819 135.129 7.53394C135.775 7.09342 136.539 6.87315 137.424 6.87315C138.227 6.87315 138.922 7.05878 139.512 7.43013C140.107 7.80148 140.566 8.30809 140.885 8.95006C141.211 9.59194 141.374 10.322 141.374 11.1401H133.146ZM122.666 19.863C121.312 19.863 120.146 19.542 119.167 18.9002C118.189 18.2582 117.438 17.374 116.91 16.2474C116.384 15.1209 116.12 13.8338 116.12 12.3863C116.12 10.9136 116.39 9.61403 116.929 8.48745C117.475 7.35459 118.234 6.47035 119.206 5.83474C120.184 5.19277 121.325 4.87179 122.629 4.87179C123.645 4.87179 124.56 5.0606 125.375 5.43822C126.19 5.81584 126.858 6.34445 127.378 7.02424C127.899 7.70393 128.222 8.4969 128.347 9.40313H126.127C125.958 8.74234 125.582 8.15701 124.999 7.6473C124.422 7.13123 123.645 6.87315 122.666 6.87315C121.801 6.87315 121.043 7.09969 120.39 7.55285C119.745 7.99974 119.24 8.63216 118.877 9.4504C118.518 10.2622 118.34 11.2157 118.34 12.3108C118.34 13.431 118.516 14.4065 118.867 15.2372C119.224 16.068 119.726 16.7131 120.372 17.1725C121.024 17.6319 121.788 17.8617 122.666 17.8617C123.244 17.8617 123.766 17.7609 124.237 17.5596C124.707 17.3582 125.105 17.0687 125.432 16.6911C125.757 16.3135 125.99 15.8603 126.127 15.3317H128.347C128.222 16.1876 127.912 16.9585 127.416 17.6446C126.927 18.3243 126.278 18.8655 125.469 19.2683C124.666 19.6648 123.733 19.863 122.666 19.863ZM104.541 19.3816C105.287 19.7278 106.118 19.9008 107.033 19.9008C107.873 19.9008 108.585 19.7749 109.168 19.5231C109.751 19.2714 110.219 18.9662 110.57 18.6075C110.921 18.2487 111.171 17.912 111.322 17.5973H111.435V19.561H113.654V10.0074C113.654 8.85561 113.466 7.93674 113.09 7.25077C112.714 6.5648 112.24 6.05183 111.67 5.71202C111.106 5.37213 110.52 5.14868 109.911 5.04169C109.31 4.92842 108.776 4.87179 108.312 4.87179C107.585 4.87179 106.845 4.97251 106.093 5.17386C105.347 5.36904 104.657 5.71511 104.024 6.21236C103.397 6.70325 102.895 7.38922 102.519 8.27036L104.625 9.02551C104.87 8.4969 105.294 7.99974 105.895 7.53394C106.497 7.06823 107.328 6.83543 108.388 6.83543C109.41 6.83543 110.171 7.09342 110.673 7.60948C111.181 8.12555 111.435 8.84934 111.435 9.78075V9.85629C111.435 10.215 111.306 10.4668 111.05 10.6115C110.799 10.7563 110.397 10.8602 109.845 10.9231C109.3 10.9797 108.588 11.0647 107.711 11.178C107.04 11.266 106.372 11.3856 105.707 11.5367C105.049 11.6814 104.447 11.9017 103.902 12.1975C103.356 12.4933 102.92 12.9023 102.595 13.4248C102.268 13.9408 102.105 14.6142 102.105 15.445C102.105 16.389 102.325 17.1946 102.764 17.8617C103.203 18.5225 103.795 19.0292 104.541 19.3816ZM109.592 17.3802C108.99 17.7264 108.25 17.8995 107.372 17.8995C106.488 17.8995 105.757 17.7043 105.181 17.3141C104.61 16.9176 104.324 16.3324 104.324 15.5582C104.324 14.9918 104.475 14.545 104.776 14.2177C105.084 13.8842 105.484 13.6356 105.98 13.472C106.482 13.302 107.021 13.1793 107.598 13.1038C107.836 13.0723 108.146 13.0345 108.529 12.9905C108.918 12.9402 109.316 12.8835 109.723 12.8205C110.137 12.7513 110.501 12.6726 110.814 12.5845C111.134 12.4902 111.341 12.3863 111.435 12.273V14.3121C111.435 14.9163 111.278 15.4921 110.964 16.0397C110.658 16.5873 110.2 17.0341 109.592 17.3802ZM86.6432 24.9985V5.0606H88.7875V7.36404H89.0508C89.2139 7.11232 89.4396 6.79134 89.7279 6.40117C90.0227 6.00465 90.4427 5.65221 90.9878 5.34386C91.5396 5.02914 92.2859 4.87179 93.2268 4.87179C94.4431 4.87179 95.5149 5.17705 96.443 5.78747C97.3711 6.39799 98.0947 7.26332 98.6156 8.38363C99.1356 9.50385 99.3965 10.8255 99.3965 12.3485C99.3965 13.8842 99.1356 15.2152 98.6156 16.3418C98.0947 17.462 97.3739 18.3306 96.4521 18.9473C95.5312 19.5578 94.4676 19.863 93.2641 19.863C92.3359 19.863 91.5932 19.7089 91.0351 19.4004C90.4773 19.0858 90.0477 18.7302 89.7467 18.3337C89.4459 17.9309 89.2139 17.5973 89.0508 17.3331H88.8627V24.9985H86.6432ZM88.8251 12.3108C88.8251 13.4059 88.985 14.3719 89.3048 15.209C89.6245 16.0397 90.0916 16.6911 90.7061 17.1631C91.3205 17.6289 92.0732 17.8617 92.9632 17.8617C93.8913 17.8617 94.6658 17.6162 95.2867 17.1253C95.913 16.6282 96.3839 15.961 96.6966 15.124C97.0166 14.2806 97.1766 13.343 97.1766 12.3108C97.1766 11.2912 97.0202 10.3724 96.7066 9.55422C96.3994 8.72971 95.9321 8.07837 95.3049 7.60003C94.684 7.11541 93.904 6.87315 92.9632 6.87315C92.0605 6.87315 91.3014 7.10287 90.6873 7.5623C90.0728 8.01547 89.6089 8.65107 89.2953 9.46922C88.9819 10.2811 88.8251 11.2283 88.8251 12.3108ZM81.0445 8.87452L83.0383 8.30809C82.6934 7.27595 82.1104 6.44517 81.289 5.81584C80.4739 5.1865 79.3516 4.87179 77.922 4.87179C76.9063 4.87179 75.9972 5.05114 75.1947 5.40994C74.3983 5.76866 73.7682 6.26263 73.3042 6.89206C72.8465 7.5214 72.6177 8.24518 72.6177 9.06333C72.6177 10.064 72.9249 10.8979 73.5394 11.565C74.1601 12.2258 75.1319 12.7135 76.4549 13.0282L78.8625 13.5947C79.5898 13.7646 80.1291 14.0227 80.4802 14.3687C80.8313 14.7086 81.0069 15.1302 81.0069 15.6338C81.0069 16.2568 80.6996 16.7918 80.0852 17.2386C79.477 17.6791 78.6556 17.8995 77.6211 17.8995C76.712 17.8995 75.9753 17.7043 75.4109 17.3141C74.853 16.924 74.4736 16.3386 74.273 15.5582L72.1663 16.0869C72.4233 17.3204 73.0347 18.2582 74.0002 18.9002C74.9658 19.542 76.1853 19.863 77.6587 19.863C78.7811 19.863 79.7654 19.6742 80.6119 19.2966C81.4583 18.919 82.1166 18.4029 82.5869 17.7484C83.0634 17.0939 83.3017 16.3512 83.3017 15.5205C83.3017 14.5072 82.9851 13.6796 82.3517 13.0377C81.7185 12.3895 80.7561 11.908 79.4645 11.5933L77.3201 11.0647C76.4674 10.8507 75.8405 10.5832 75.4391 10.2622C75.0379 9.94129 74.8372 9.50385 74.8372 8.95006C74.8372 8.327 75.1288 7.81402 75.7119 7.41122C76.3013 7.00215 77.038 6.79761 77.922 6.79761C78.5679 6.79761 79.0977 6.90152 79.5115 7.10914C79.9253 7.31686 80.2514 7.58121 80.4896 7.90211C80.7342 8.21682 80.9191 8.5409 81.0445 8.87452ZM60.9627 19.5613V14.9575L62.0485 13.7131L65.985 19.5613H70.678L65.0475 11.3421L70.4053 5.06105H65.8063L61.179 10.5647H60.9627V0.227539H56.9563V19.5613H60.9627ZM46.127 5.0586V19.559H50.1334V11.3553C50.1334 10.7637 50.2651 10.2414 50.5285 9.78821C50.7981 9.33514 51.1617 8.9827 51.6194 8.73089C52.0834 8.4729 52.61 8.34391 53.1995 8.34391C53.4754 8.34391 53.7794 8.3659 54.1117 8.4099C54.444 8.45399 54.7042 8.50435 54.8923 8.56099V4.99251C54.7168 4.94851 54.513 4.91388 54.2811 4.8887C54.0491 4.86352 53.8327 4.85097 53.6321 4.85097C52.8233 4.85097 52.1085 5.08378 51.4877 5.54948C50.867 6.00892 50.425 6.68862 50.1617 7.58867H50.0112V5.0586H46.127Z" fill="#0B2E58"/>
<path d="M42.1102 10.6978C42.1102 14.7496 38.8395 18.0244 34.8168 18.0244C30.7942 18.0244 27.5234 14.7496 27.5234 10.6978C27.5234 6.64595 30.7942 3.37109 34.8168 3.37109C38.8395 3.37109 42.1102 6.64595 42.1102 10.6978Z" stroke="#0364B8" stroke-width="3.06927"/>
</svg>
